<?xml version="1.0" encoding="UTF-8"?>
<svg id="Calque_2" data-name="Calque 2" xmlns="http://www.w3.org/2000/svg" width="635.5" height="203.1" viewBox="0 0 635.5 203.1">
  <g id="Calque_1-2" data-name="Calque 1">
    <g id="BuwHV7.tif">
      <g>
        <path d="M513.2,102.2c-17.3-8.7-21.4-30.4-13.5-46.8,8.2-17,29.9-21.4,45.6-9.9v-21.6c.2-5.5,4.2-9.5,9.3-9.5s9.3,3.9,9.3,9.5l-.3,51.7c0,14.9-11.4,26.8-25.5,29.7s-17.2.8-24.9-3ZM542,84c5-6.5,5-15.5.7-21.9-4.3-6.4-12.1-8.1-19.1-5.4-6,2.3-9.8,8.7-9.7,16,0,7.3,3.8,13.6,9.9,15.9s13.7,1.4,18.2-4.6Z" style="fill: #e72c78;"/>
        <path d="M303.8,86.9c8.6.8,14.9-2.2,21-6.7s11.1-3,14,1.9.9,11-3.5,14.3c-19.5,15.1-52.4,12.4-67.3-9.1,8.2-12.1,6.6-26.8-2.4-37.9,1.5-4.1,1-10.3,1.7-14.1,5.2-11.7,18-18.1,30.1-20.2,12.8-2.2,25.1.2,35.7,7.1s6.3,5.6,6.9,9.8c.4,2.8-.8,6.4-2.7,8.1-4.1,3.6-9.6,2.3-14-1-5.3-4-11.1-5.9-17.9-5.8-10.3.2-19.1,6-22.9,15.6-2.7,7-2.8,14.8-.3,21.9s11.3,15.3,21.5,16.2Z" style="fill: #e72c78;"/>
        <path d="M412.3,106.2h-15.1s-1.6-7.6-1.6-7.6c-7.2,6.5-17.1,8.8-27,6.3-8.5-2.2-16-8.9-19.4-18.1-6.7-18.3,0-42,19.3-46.9s19.8-.3,27.7,6.5c1.6-5,5.2-7.7,9.8-7.4s8.6,3.5,8.6,8.7v54.3c0,1.1-1.1,4.1-2.1,4.1ZM396.4,71.1c-.6-10.2-8.2-16.6-17.6-15.7s-14.4,8.1-14.3,17.2c0,9.8,7.1,17.1,16.3,16.9s16.1-8,15.5-18.5Z" style="fill: #e72c78;"/>
        <path d="M604.8,117.4c-5.6,12.4-14.6,14.1-25.8,14.2s-9-4-8.8-8.7c.2-4.9,4.5-8.2,9.8-7.6s7.8-1.7,9.5-5.4l4.2-9.4-22.4-48.8c-2.2-4.7.8-9.9,4.8-11.8s9.8-.3,12,4.6l14.9,33.5,14.9-33.4c2.1-4.6,6.9-6.6,11.3-5,3.7,1.3,7.9,6.6,5.7,11.4l-30.1,66.5Z" style="fill: #e72c78;"/>
        <path d="M468.3,71.1c0-4.5-1.5-8.7-3.8-11.5-4.1-5-10.9-5.6-15.9-1.3s-5.2,7.2-5.2,11.5v33.9c0,1-2.1,2.7-3.1,2.7h-12.1c-1,0-3.2-1.7-3.2-2.7v-56.8c.2-4.1,5-7.2,8-7.7s8.3,1.8,10.4,6.2c9.3-7.3,21.7-9,31.5-2.1,6.8,4.8,11.7,13,11.8,21.7l.3,38.5c0,.9-1.9,2.8-2.7,2.8h-12.8c-1.1,0-3-1.8-3-2.9v-32.3Z" style="fill: #e72c78;"/>
        <path d="M347.2,181.7c-22.3,9.5-51.1-5.8-43.2-16.9s8.3-3.7,12.1-1c7.3,5.1,17.7,9.1,25.4,2.5s2.3-4.7,1.9-6.3-2.5-4.1-4.2-4.6l-15-4.3c-5.3-1.5-11-3.7-14.8-7.8s-6.1-13.3-3.9-20.8,7.3-11.8,14.5-14.2c18.6-6,42.3,2.6,38.4,14.6s-7.7,6-11.8,3.1c-6.2-4.3-13.3-6.5-20.7-3-1.9.9-3.7,4-3.8,5.9s2.4,5.5,4.6,6.2l15.4,4.7c5.7,1.7,12,4.1,15.4,9.2,7.8,11.4,2.8,27.1-10.4,32.7Z" style="fill: #13afc2;"/>
        <path d="M567.4,172.7c2.4,3.3,2.5,7.4-.8,10.3-2,1.8-7.6,2.5-9.8-.6l-15.5-21.6-5.9,5.5-.4,18.2c-5.7.2-9.6.2-15-.3v-63.9c0-3.4,5.2-5.5,7.7-5.6s7.3,2.3,7.4,5.6l.5,27.6,17.5-16.7c2.5-2.4,7.3-1.9,9.3.3s2.2,7.3-.8,10l-9.8,9.2,15.8,21.9Z" style="fill: #13afc2;"/>
        <path d="M457,157.4c0,15.5-12.6,28-28.1,28s-28.1-12.5-28.1-28,12.6-28,28.1-28,28.1,12.5,28.1,28ZM442.1,157.2c0-8.4-6.1-14.4-14.3-13.8s-12.4,6.7-12.1,14.5,6.1,13.9,14,13.5c7.3-.4,12.5-6.3,12.4-14.2Z" style="fill: #13afc2;"/>
        <path d="M485.6,169.1c5.7,4.3,12.3,2.2,17.8-.3s7.9.2,9.2,3.2c1.4,3.1,0,7.3-3.4,9.2-7.2,3.9-15.8,4.6-23.8,2.7-12.2-2.8-20-13.2-20.3-25.7-.3-12.5,7.1-23.3,19.3-26.6,8.3-2.3,17.5-1.5,24.9,2.6s4.7,6,3.3,9.1c-1.3,2.9-5.7,4.9-9.1,3.2-5.8-2.8-12.6-4.5-18.3,0s-7,17.1.4,22.6Z" style="fill: #13afc2;"/>
        <path d="M389.2,184.5c-5.8.5-9.8.5-15.1-.2v-41.3c-.1,0-6-.9-6-.9-2.1-.3-4.2-3.9-4.2-6.2s2.3-5.5,4.4-5.8l5.6-.8.2-7.1c.1-4.1,3.2-7.1,6.8-7.5s8,2.1,8.2,6.6l.3,7.9,5.8.9c1.9.3,4,3.8,4.1,5.7s-1.9,5.8-3.8,6.1l-6.2.9-.2,41.5Z" style="fill: #13afc2;"/>
        <g>
          <path d="M36,94.4c-1.1.5-2.3,2.6-2.3,3.6s2.7,2.8,3.8,2.5c6.4-2.1,10.7-5.3,15.8-9.6.3,1.2.7,5.6-.5,7.1-5.5,7.1-13,14.5-21,19.6s-15.2,7.3-19.6,2.8-.5-12,2.3-16.6c3.7-6,2.5-11.8-2.7-16.3s-5.8-8.8-5.8-13.7c0-6.6,3.5-11.8,7.2-16.5,7.5-9.3-5.2-19.3,3.1-26.3s7-3.1,10.4-1.1c7.6,4.3,13.7,10.1,19.2,16.7s10.2,10.6,7.9,20.3c-25.4-19.2-25.1-7-22.2-5.6,6.1,2.8,14.5,6.4,19,12.2-4.1.3-20.3-.6-19.1,5.7s9.7-2.8,19.8,1.9c-2,5-5.7,8.8-10.5,11.1l-5.1,2.4Z" style="fill: #fdfdfd;"/>
          <g>
            <path d="M53.7,123.3v7.4c0,1.4,1.7,3.9,3,4.5l26.5,11.5,8.3,3.6,14.7,6.3,13.2,5.7,11.5,5.1,73.4-31.2c2.2-.9,5.4-3.6,5.4-5.5v-7.1c-.1,0,23.4,8.3,23.4,8.3l-.2,23.6-96.8,45.6c-1.6.8-4.9,2.1-6.5,1.9l-99.7-46.4v-23.4c8.2-3.7,15.9-7.2,23.8-10ZM228.4,152.1l-.3-14.2-10.2,4.7v14.2c.1,0,10.5-4.7,10.5-4.7ZM45.4,158.2l.3-14-10.7-5-.2,14.2,10.7,4.8ZM191.1,169.6l21.9-10.2v-14.4c0,0-22.2,10.4-22.2,10.4l.3,14.2ZM112.5,189.5c.4-6.3.4-9.6.3-14.2l-62-28.7c-.3,5.6-.3,9.8,0,14.4l61.7,28.6ZM187.1,171.4l-.6-13.8-8.9,3.9.2,14.3,9.2-4.4ZM173.9,177.8l-.2-14.2-24.5,11.4v14.4s24.7-11.5,24.7-11.5ZM128.3,196.5l.2-14-10.5-4.7v14.4s10.3,4.2,10.3,4.2ZM144.2,191.8l-.3-14.3-10.7,5.1.2,13.9,10.8-4.8Z" style="fill: #13afc2;"/>
            <path d="M112.5,189.5l-61.7-28.6c-.2-4.6-.2-8.7,0-14.4l62,28.7c.1,4.7.1,8-.3,14.2Z" style="fill: #fdfdfd;"/>
            <polygon points="173.9 177.8 149.2 189.3 149.2 174.9 173.7 163.6 173.9 177.8" style="fill: #fdfdfd;"/>
            <polygon points="191.1 169.6 190.8 155.4 212.8 145 212.9 159.3 191.1 169.6" style="fill: #fdfdfd;"/>
            <polygon points="228.4 152.1 218 156.8 217.8 142.6 228.1 137.9 228.4 152.1" style="fill: #fdfdfd;"/>
            <polygon points="45.4 158.2 34.7 153.3 34.9 139.1 45.6 144.1 45.4 158.2" style="fill: #fdfdfd;"/>
            <polygon points="128.3 196.5 117.9 192.3 118 177.9 128.4 182.5 128.3 196.5" style="fill: #fdfdfd;"/>
            <polygon points="144.2 191.8 133.4 196.6 133.2 182.6 143.9 177.6 144.2 191.8" style="fill: #fdfdfd;"/>
            <polygon points="187.1 171.4 177.9 175.7 177.7 161.5 186.5 157.6 187.1 171.4" style="fill: #fdfdfd;"/>
          </g>
          <g>
            <path d="M209.5,123.6v7.1c.2,1.9-3,4.6-5.2,5.5l-73.4,31.2-11.5-5.1-13.2-5.7-14.7-6.3-8.3-3.6-26.5-11.5c-1.4-.6-3-3.1-3-4.5v-7.4c1-5.4.9-11.2.5-17-10.5,10.3-20.5,20.7-35.4,22s-15.8-6.1-14.8-14.8,10.3-15.3,4.5-20.6c-11.2-10-11-26.3-2.2-36.6s4.3-7.2,2.4-11.4c-3.1-6.7-1.5-13.9,3.4-18.3,14.4-12.9,31.9,8.6,42.1,19.6l.4-14.8L131,0l77.1,31.2.7,14.7c9.6-10.1,26.5-31.8,41.1-20s7.3,11.3,4.4,18.1-1.6,7.3.2,9.4c11,13.1,12.1,28.6-1,40.3s-.7,4.8.2,6.3c4.7,7.6,8.5,16.8,2,24-6.6,7.2-19.1,3.8-27-1s-13.1-10.2-19.9-16.7l-.3,13.8,1.1,3.4ZM161.1,18l-30.1-12.5-66.5,27.4,29.4,11.9,67.3-26.8ZM134.5,58.2l63.8-25-29.8-12.5-67,26.7,26.1,10.7c1.7.7,4.4.6,6.8,0ZM36,94.4l5.1-2.4c4.8-2.3,8.5-6.1,10.5-11.1-10-4.7-18.6,3.9-19.8-1.9s15-5.4,19.1-5.7c-4.6-5.8-13-9.4-19-12.2s-3.2-13.5,22.2,5.6c2.2-9.7-1.4-12.5-7.9-20.3s-11.6-12.4-19.2-16.7c-3.4-1.9-7.8-1-10.4,1.1-8.3,7,4.4,16.9-3.1,26.3-3.8,4.7-7.2,10-7.2,16.5,0,4.8,2.2,10.6,5.8,13.7,5.2,4.5,6.4,10.2,2.7,16.3-2.8,4.6-6.8,11.9-2.3,16.6s14.6.4,19.6-2.8c8-5.1,15.5-12.4,21-19.6s.8-5.9.5-7.1c-5.1,4.3-9.4,7.6-15.8,9.6s-3.8-1.3-3.8-2.5,1.3-3.1,2.3-3.6ZM128.6,157.5V64c0,0-68.9-26.9-68.9-26.9v93.6s66.8,28.7,66.8,28.7c.5.2,1.6.5,1.6.5s.3-1.2.5-2.4Z" style="fill: #e72c78;"/>
            <path d="M128.6,157.5c-.3,1.1-.5,2.4-.5,2.4s-1.1-.3-1.6-.5l-66.7-28.7V37.1s68.8,26.9,68.8,26.9v93.6ZM110.2,130.4l.5-15.8,6.5,1.7-11.1-23.8c-2.3,2.7-3.8,4.4-5.6,6.7l-5.9,7.6,6.9,3.6v16.4s8.7,3.6,8.7,3.6ZM116.9,144.6l.2-5.4-22.4-9.7.6,6,21.7,9.1Z" style="fill: #fdfdfd;"/>
            <polygon points="161.1 18 93.8 44.8 64.5 32.9 131 5.5 161.1 18" style="fill: #fdfdfd;"/>
            <path d="M134.5,58.2c-2.5.6-5.1.7-6.8,0l-26.1-10.7,67-26.7,29.8,12.5-63.8,25Z" style="fill: #fdfdfd;"/>
            <path d="M110.2,130.4l-8.7-3.6v-16.4s-7-3.6-7-3.6l5.9-7.6c1.8-2.3,3.2-4,5.6-6.7l11.1,23.8-6.5-1.7-.5,15.8Z" style="fill: #e72c78;"/>
            <polygon points="116.9 144.6 95.2 135.5 94.6 129.5 117.1 139.2 116.9 144.6" style="fill: #e72c78;"/>
          </g>
        </g>
      </g>
    </g>
  </g>
</svg>